<?xml version="1.0" encoding="utf-8"?>
<svg version="1.1" xmlns="http://www.w3.org/2000/svg" viewBox="0 0 64 64">
  <g>
    <!-- Avocado outer shape -->
    <path d="M32,14c-5.5,0-10,3-12,7c-2,4-2,9,0,13c1,2,2.5,3.5,4.5,4.5c0.5,2,1.5,3.8,3,5.2c2.5,2.3,6,3.3,9.5,3.3
    s7-1,9.5-3.3c1.5-1.4,2.5-3.2,3-5.2c2-1,3.5-2.5,4.5-4.5c2-4,2-9,0-13C42,17,37.5,14,32,14z M32,42c-4.4,0-8-3.6-8-8s3.6-8,8-8
    s8,3.6,8,8S36.4,42,32,42z"/>

    <!-- Avocado seed (center circle) -->
    <circle cx="32" cy="34" r="5"/>
  </g>

  <!-- Mandatory outer circle border -->
  <path d="M32,3c16,0,29,13,29,29S48,61,32,61S3,48,3,32S16,3,32,3 M32,0C14.3,0,0,14.3,0,32s14.3,32,32,32s32-14.3,32-32S49.7,0,32,0 L32,0z"/>
</svg>
