<?xml version="1.0" encoding="utf-8"?>
<svg version="1.1" xmlns="http://www.w3.org/2000/svg" viewBox="0 0 64 64">
  <g>
    <path d="M32,8c-7.7,0-14,6.3-14,14c0,5.6,3.3,10.5,8.1,12.8v4.8c-4.2,1.6-7.1,5.7-7.1,10.4c0,1.1,0.9,2,2,2s2-0.9,2-2
    c0-3,2.1-5.6,4.9-6.3v7.3c0,1.1,0.9,2,2,2s2-0.9,2-2v-7.3c2.8,0.7,4.9,3.3,4.9,6.3c0,1.1,0.9,2,2,2s2-0.9,2-2
    c0-4.7-2.9-8.8-7.1-10.4v-4.8c4.8-2.3,8.1-7.2,8.1-12.8C46,14.3,39.7,8,32,8z M24,22c0-1.1,0.9-2,2-2s2,0.9,2,2s-0.9,2-2,2
    S24,23.1,24,22z M38,24c-1.1,0-2-0.9-2-2s0.9-2,2-2s2,0.9,2,2S39.1,24,38,24z"/>
  </g>
  <path d="M32,3c16,0,29,13,29,29S48,61,32,61S3,48,3,32S16,3,32,3 M32,0C14.3,0,0,14.3,0,32s14.3,32,32,32s32-14.3,32-32S49.7,0,32,0 L32,0z"/>
</svg>
