<?xml version="1.0" encoding="utf-8"?>
<svg version="1.1" xmlns="http://www.w3.org/2000/svg" viewBox="0 0 64 64">
  <g>
    <path d="M53,23.6c-1.7-2.9-5.1-4.3-8.3-3.3c-1.8,0.5-3.3,1.7-4.3,3.3c-2.5-0.9-5.2-1.4-8-1.4c-2.9,0-5.6,0.5-8.2,1.5
    c-1-1.7-2.6-2.9-4.5-3.4c-3.2-1-6.7,0.4-8.3,3.3c-1.3,2.2-1.2,5,0.3,7.1C10.1,32.5,9,35.2,9,38c0,6.6,10.3,12,23,12
    s23-5.4,23-12c0-2.8-1.1-5.4-2.8-7.3C53.7,28.7,54.1,26.1,53,23.6z M15.5,28.2c-0.8-1.4-0.7-3.2,0.3-4.5c0.8-1,1.9-1.5,3.1-1.5
    c0.7,0,1.5,0.2,2.1,0.5c1.9,1,2.8,3.2,2.2,5.3c-0.8,0.2-1.6,0.5-2.4,0.8C18.8,29.5,17.1,29.1,15.5,28.2z M43.2,28.8
    c-0.8-0.3-1.6-0.6-2.4-0.8c-0.5-1.9,0.3-4,1.9-5.1c0.7-0.4,1.5-0.7,2.3-0.7c1.2,0,2.4,0.5,3.3,1.5c1,1.3,1.1,3,0.4,4.4
    C47.2,29.1,45.3,29.5,43.2,28.8z"/>
  </g>
  <path d="M32,3c16,0,29,13,29,29S48,61,32,61S3,48,3,32S16,3,32,3 M32,0C14.3,0,0,14.3,0,32s14.3,32,32,32s32-14.3,32-32S49.7,0,32,0 L32,0z"/>
</svg>
