<?xml version="1.0" encoding="utf-8"?>
<svg version="1.1" xmlns="http://www.w3.org/2000/svg" viewBox="0 0 64 64">
  <g>
    <path d="M32,54c-1.5,0-2.9-0.6-3.9-1.6C27,51.3,17.6,40.7,13.3,32.8c-3.8-7-3.5-14.9,0.8-19.9C17.9,8.6,24.5,6,32,6
    s14.1,2.6,17.9,6.9c4.3,5,4.6,12.9,0.8,19.9c-4.3,7.9-13.7,18.5-14.8,19.7C34.9,53.4,33.5,54,32,54z M29.4,47.9
    c1.1,1.1,4.1,1.1,5.2,0l5.7-6.2c0.8-0.9,0.8-2.2-0.1-3.1c-0.8-0.8-2.1-0.8-3,0l-3.8,4.1V16.3c0-1.2-1-2.2-2.2-2.2s-2.2,1-2.2,2.2
    v26.4l-3.8-4.1c-0.9-0.9-2.2-0.9-3,0c-0.9,0.9-0.9,2.2-0.1,3.1L29.4,47.9z M19.9,20.9c-0.7-1-2.1-1.2-3.1-0.5
    c-1,0.7-1.2,2.1-0.5,3.1l7.6,11.1c0.6,0.9,1.9,1.2,2.9,0.7c1-0.5,1.3-1.7,0.8-2.7L19.9,20.9z M47.7,20.4c-1-0.7-2.4-0.4-3.1,0.5
    l-7.6,11.7c-0.6,0.9-0.3,2.2,0.6,2.7c1,0.6,2.2,0.3,2.8-0.6l7.8-11.2C48.9,22.5,48.6,21.1,47.7,20.4z"/>
  </g>
  <path d="M32,3c16,0,29,13,29,29S48,61,32,61S3,48,3,32S16,3,32,3 M32,0C14.3,0,0,14.3,0,32s14.3,32,32,32s32-14.3,32-32S49.7,0,32,0 L32,0z"/>
</svg>
