<?xml version="1.0" encoding="utf-8"?>
<svg version="1.1" xmlns="http://www.w3.org/2000/svg" viewBox="0 0 64 64">
  <g>
    <path d="M44,47c0,4.4-3.6,8-8,8H28c-4.4,0-8-3.6-8-8c0-2.6,1.3-5,3.5-6.4L28,37.3V22h-3v-4h3v-2h8v2h3v4h-3v15.3l4.5,3.3
    C42.7,42,44,44.4,44,47z M32,35c-2.2,0-4,1.8-4,4s1.8,4,4,4s4-1.8,4-4S34.2,35,32,35z M39,27c-1.7,0-3,1.3-3,3s1.3,3,3,3s3-1.3,3-3
    S40.7,27,39,27z"/>
  </g>
  <path d="M32,3c16,0,29,13,29,29S48,61,32,61S3,48,3,32S16,3,32,3 M32,0C14.3,0,0,14.3,0,32s14.3,32,32,32s32-14.3,32-32S49.7,0,32,0 L32,0z"/>
</svg>
