<?xml version="1.0" encoding="utf-8"?>
<svg version="1.1" xmlns="http://www.w3.org/2000/svg" viewBox="0 0 64 64">
  <g>
    <path d="M48.8,17.6c-3.8-2.7-8.6-3.7-13.2-2.9C28,15.9,20.8,20.9,18.6,28c-1.1,3.6-1.3,7.6-0.6,11.5c0.5,2.9,1.8,5.6,3.6,8
    c1.2,1.6,1.5,3.8,0.8,5.8c-0.3,1-1,1.8-2,2.4c-0.6,0.4-1.4,0.5-2,0.2c-1.8-0.9-2.8-2.8-2.5-4.7c0.2-1,0.8-1.9,1.6-2.5
    c-2.1-2.8-3.8-6.1-4.6-9.6c-1.2-4.8-1-9.9,0.7-14.6c2.5-7.2,8.6-12.8,16.1-14.6c6.3-1.5,12.9-0.2,18.2,3.6L48.8,17.6z M30,30
    c-2.2,0-4,1.8-4,4s1.8,4,4,4s4-1.8,4-4S32.2,30,30,30z M42,22c-2.2,0-4,1.8-4,4s1.8,4,4,4s4-1.8,4-4S44.2,22,42,22z"/>
  </g>
  <path d="M32,3c16,0,29,13,29,29S48,61,32,61S3,48,3,32S16,3,32,3 M32,0C14.3,0,0,14.3,0,32s14.3,32,32,32s32-14.3,32-32S49.7,0,32,0 L32,0z"/>
</svg>
