<?xml version="1.0" encoding="utf-8"?>
<svg version="1.1" xmlns="http://www.w3.org/2000/svg" viewBox="0 0 64 64">
  <g>
    <path d="M43.5,13.1c-4-2.3-8.5-3.1-13-2.3C21.4,12.2,14.2,19.3,13,28.5c-0.5,4.1,0.1,8.2,1.7,12c1.2,2.9,3.1,5.4,5.4,7.5
    c1.8,1.6,2.5,4.1,1.9,6.5c-0.4,1.6-1.8,2.6-3.3,2.6c-0.6,0-1.1-0.2-1.6-0.5c-1.6-1-2.2-3.1-1.3-4.8c0.3-0.6,0.4-1.3,0.2-2
    c-1.4-1.9-3-3.6-4.8-5c-1.6,1.9-1.6,4.7,0.1,6.6c1.3,1.5,3.4,2.2,5.4,2.1C18.9,56.6,21.7,58,24.8,58c3,0,5.8-1.5,7.5-4
    c2.6-3.8,1.6-8.9-2.1-11.5c-2.1-1.5-4.3-2.8-6.7-3.8c-0.5-1.8-0.6-3.7-0.2-5.6c0.8-3.9,3.2-7.3,6.6-9.4c0.9,1.9,2.5,3.5,4.6,4.3
    c3.3,1.3,7-0.1,8.7-3.1C45.1,21.7,45.2,17.3,43.5,13.1z M37.1,22.1c-1.3,0.6-2.9,0-3.4-1.3c-0.6-1.3,0-2.9,1.3-3.4
    c1.3-0.6,2.9,0,3.4,1.3C39,20.1,38.4,21.6,37.1,22.1z"/>
  </g>
  <path d="M32,3c16,0,29,13,29,29S48,61,32,61S3,48,3,32S16,3,32,3 M32,0C14.3,0,0,14.3,0,32s14.3,32,32,32s32-14.3,32-32S49.7,0,32,0 L32,0z"/>
</svg>
